<svg width="68" height="32" viewBox="0 0 68 32" fill="none" xmlns="http://www.w3.org/2000/svg">
<path d="M10.5503 8.77404V18.1105C10.5503 19.5559 10.1402 20.6692 9.3198 21.4505C8.51247 22.2318 7.41866 22.6224 6.03837 22.6224C4.59298 22.6224 3.43407 22.2123 2.56162 21.3919C1.68918 20.5716 1.25296 19.4061 1.25296 17.8956H4.57345C4.57345 18.4686 4.69064 18.9048 4.92503 19.2043C5.15942 19.4908 5.49798 19.634 5.94071 19.634C6.34438 19.634 6.6569 19.5038 6.87826 19.2434C7.09963 18.9829 7.21031 18.6053 7.21031 18.1105V8.77404H10.5503Z" fill="#F2994A"/>
<path d="M22.9521 21.9867C26.672 21.9867 29.6875 18.9712 29.6875 15.2513C29.6875 11.5314 26.672 8.51599 22.9521 8.51599C19.2323 8.51599 16.2168 11.5314 16.2168 15.2513C16.2168 18.9712 19.2323 21.9867 22.9521 21.9867Z" stroke="#F2994A" stroke-width="2.50368" stroke-linejoin="round"/>
<path d="M27.7945 20.0936L31.1563 23.4554M25.1935 12.6138C24.8995 12.3191 24.5501 12.0853 24.1655 11.926C23.7809 11.7667 23.3685 11.685 22.9522 11.6855C22.0766 11.6855 21.2842 12.0401 20.7109 12.6138H25.1935Z" stroke="#F2994A" stroke-width="2.50368" stroke-linecap="round" stroke-linejoin="round"/>
<path d="M39.179 13.1297C39.4915 12.6219 39.9407 12.2117 40.5267 11.8992C41.1127 11.5867 41.7833 11.4304 42.5385 11.4304C43.437 11.4304 44.2508 11.6583 44.9801 12.1141C45.7093 12.5698 46.2822 13.2209 46.6989 14.0673C47.1286 14.9137 47.3435 15.8968 47.3435 17.0167C47.3435 18.1365 47.1286 19.1262 46.6989 19.9856C46.2822 20.832 45.7093 21.4896 44.9801 21.9583C44.2508 22.4141 43.437 22.642 42.5385 22.642C41.7702 22.642 41.0996 22.4922 40.5267 22.1927C39.9537 21.8802 39.5045 21.47 39.179 20.9622V22.4857H35.8389V8.03181H39.179V13.1297ZM43.9448 17.0167C43.9448 16.1833 43.7105 15.5322 43.2417 15.0634C42.7859 14.5816 42.2195 14.3407 41.5424 14.3407C40.8783 14.3407 40.3118 14.5816 39.8431 15.0634C39.3873 15.5452 39.1594 16.2028 39.1594 17.0362C39.1594 17.8696 39.3873 18.5272 39.8431 19.009C40.3118 19.4908 40.8783 19.7317 41.5424 19.7317C42.2065 19.7317 42.7729 19.4908 43.2417 19.009C43.7105 18.5141 43.9448 17.85 43.9448 17.0167ZM53.7249 22.642C52.7743 22.642 51.9279 22.4792 51.1857 22.1537C50.4435 21.8281 49.8575 21.3854 49.4278 20.8255C48.9981 20.2525 48.7572 19.6145 48.7051 18.9113H52.006C52.0451 19.2889 52.2209 19.5949 52.5334 19.8293C52.8459 20.0637 53.2301 20.1809 53.6858 20.1809C54.1025 20.1809 54.4215 20.1028 54.6429 19.9465C54.8773 19.7772 54.9945 19.5624 54.9945 19.302C54.9945 18.9894 54.8317 18.7616 54.5062 18.6183C54.1806 18.4621 53.6533 18.2928 52.9241 18.1105C52.1428 17.9282 51.4917 17.7394 50.9708 17.544C50.45 17.3357 50.0007 17.0167 49.6231 16.587C49.2455 16.1442 49.0567 15.5517 49.0567 14.8095C49.0567 14.1845 49.2259 13.618 49.5645 13.1102C49.9161 12.5893 50.4239 12.1792 51.088 11.8797C51.7651 11.5802 52.566 11.4304 53.4905 11.4304C54.8578 11.4304 55.932 11.769 56.7133 12.4461C57.5076 13.1232 57.9634 14.0217 58.0806 15.1416H54.9945C54.9424 14.7639 54.7731 14.4644 54.4866 14.2431C54.2132 14.0217 53.8486 13.911 53.3928 13.911C53.0022 13.911 52.7027 13.9892 52.4943 14.1454C52.286 14.2887 52.1818 14.4905 52.1818 14.7509C52.1818 15.0634 52.3446 15.2978 52.6701 15.4541C53.0087 15.6103 53.5296 15.7666 54.2327 15.9229C55.0401 16.1312 55.6976 16.3396 56.2055 16.5479C56.7133 16.7432 57.1561 17.0688 57.5337 17.5245C57.9243 17.9672 58.1262 18.5662 58.1392 19.3215C58.1392 19.9595 57.9569 20.5325 57.5923 21.0403C57.2407 21.5351 56.7263 21.9258 56.0492 22.2123C55.3851 22.4987 54.6103 22.642 53.7249 22.642Z" fill="#F2994A"/>
</svg>
